<?xml version="1.0" encoding="iso-8859-1"?>
<!-- Uploaded to: SVG Repo, www.svgrepo.com, Generator: SVG Repo Mixer Tools -->
<svg height="800px" width="800px" version="1.1" id="Layer_1" xmlns="http://www.w3.org/2000/svg" xmlns:xlink="http://www.w3.org/1999/xlink" 
	 viewBox="0 0 512.001 512.001" xml:space="preserve">
<path style="fill:#BF6100;" d="M296.46,412.296c-6.929,0-11.375-0.592-11.963-0.675l5.691-40.251l-0.129-0.017
	c0.32,0.039,32.159,3.84,55.237-16.715c18.398-16.387,27.495-44.465,27.038-83.455c-0.131-11.225,8.862-20.431,20.087-20.561
	c0.081-0.001,0.163-0.001,0.243-0.001c11.114,0,20.188,8.944,20.319,20.088c0.604,51.6-13.243,90.202-41.155,114.734
	C345.315,408.742,313.437,412.296,296.46,412.296z"/>
<path style="fill:#9E4D00;" d="M296.46,412.296c10.377,0,26.323-1.337,43.206-7.691c-1.226-14.699-2.814-28.882-4.755-42.539
	c-21.203,12.097-44.577,9.32-44.851,9.287l0.129,0.017l-5.691,40.251C285.084,411.703,289.531,412.296,296.46,412.296z"/>
<path style="fill:#4E901E;" d="M486.343,160.05c0-26.221-19.621-47.844-44.978-51.027c0.001-0.14,0.01-0.278,0.01-0.419
	c0-38.306-31.052-69.358-69.357-69.358c-38.306,0-69.358,31.052-69.358,69.358c0,0.013,0.001,0.025,0.001,0.039
	c-27.075,0.807-48.78,22.994-48.78,50.265c0,23.858,16.615,43.822,38.901,48.99c0.563,3.845,1.414,7.596,2.546,11.224
	c-16.716,11.172-27.728,30.211-27.728,51.826c0,34.406,27.892,62.297,62.297,62.297c27.81,0,51.357-18.227,59.365-43.384
	c8.391,4.209,17.858,6.592,27.885,6.592c34.406,0,62.298-27.892,62.298-62.298c0-13.066-4.03-25.186-10.904-35.203
	C479.439,189.518,486.343,175.595,486.343,160.05z"/>
<g>
	<path style="fill:#47821C;" d="M448.591,183.521c-2.135,0-4.258-0.892-5.766-2.633c-2.755-3.183-2.408-7.997,0.775-10.752
		c2.113-1.829,4.633-5.064,4.633-10.087c0-6.701-4.993-12.382-11.615-13.214c-4.176-0.524-7.137-4.335-6.613-8.512
		c0.525-4.178,4.345-7.141,8.512-6.613c14.229,1.787,24.959,13.97,24.959,28.339c0,11.349-6.202,18.412-9.901,21.613
		C452.135,182.91,450.359,183.521,448.591,183.521z"/>
	<path style="fill:#47821C;" d="M417.148,273.585c-6.19,0-12.123-1.401-17.634-4.166c-3.763-1.887-5.284-6.468-3.396-10.23
		c1.888-3.763,6.466-5.285,10.231-3.396c3.371,1.691,7.004,2.548,10.8,2.548c13.337,0,24.187-10.851,24.187-24.187
		c0-4.209,3.412-7.622,7.622-7.622s7.622,3.413,7.622,7.622C456.579,255.896,438.891,273.585,417.148,273.585z"/>
	<path style="fill:#47821C;" d="M321.343,284.774c0-21.615,11.012-40.653,27.728-51.826c-1.131-3.628-1.983-7.379-2.546-11.224
		c-22.287-5.168-38.901-25.132-38.901-48.99c0-27.271,21.705-49.457,48.78-50.264c0-0.013-0.001-0.025-0.001-0.039
		c0-34.542,25.255-63.177,58.305-68.471c-11.773-9.211-26.584-14.716-42.691-14.716c-38.306,0-69.358,31.052-69.358,69.358
		c0,0.013,0.001,0.025,0.001,0.039c-27.075,0.807-48.78,22.994-48.78,50.265c0,23.858,16.615,43.822,38.901,48.99
		c0.563,3.845,1.414,7.596,2.546,11.224c-16.716,11.172-27.728,30.211-27.728,51.826c0,34.406,27.892,62.297,62.297,62.297
		c4.458,0,8.805-0.474,12.998-1.364C329.702,320.456,321.343,303.597,321.343,284.774z"/>
	<path style="fill:#47821C;" d="M368.224,219.916c0-51.392-34.777-94.81-82.033-107.969c-18.905,7.231-32.335,25.527-32.335,46.975
		c0,23.858,16.615,43.822,38.901,48.99c0.563,3.845,1.414,7.596,2.546,11.224c-16.716,11.172-27.728,30.211-27.728,51.826
		c0,22.5,11.931,42.21,29.808,53.16C338.837,307.665,368.224,267.158,368.224,219.916z"/>
</g>
<path style="fill:#E47500;" d="M291.99,504.379c-11.226,0-20.326-9.1-20.326-20.325c0-90.388-12.125-148.891-22.295-182.053
	c-10.953-35.713-22.016-50.369-22.125-50.513l0.154,0.195l31.626-25.542c1.493,1.849,14.962,19.234,27.94,59.88
	c16.822,52.686,25.352,119.314,25.352,198.032C312.315,495.279,303.216,504.379,291.99,504.379z"/>
<path style="fill:#BF6100;" d="M291.312,475.945c0-90.387-12.125-148.891-22.296-182.053
	c-10.953-35.713-22.016-50.369-22.125-50.513l0.154,0.195l15.482-12.504c-1.857-2.835-3.108-4.439-3.504-4.931l-31.626,25.542
	l-0.154-0.195c0.11,0.144,11.172,14.8,22.125,50.513c10.171,33.162,22.295,91.665,22.295,182.053c0,11.226,9.1,20.325,20.326,20.325
	c6.759,0,12.73-3.312,16.425-8.387C298.725,494.444,291.312,486.072,291.312,475.945z"/>
<path style="fill:#6DC82A;" d="M240.215,337.054c-19.874,0-37.255,10.655-46.76,26.558c-1.958-0.333-3.968-0.516-6.02-0.516
	c-19.696,0-35.664,15.968-35.664,35.664c0,19.697,15.968,35.664,35.664,35.664c5.483,0,10.674-1.24,15.314-3.45
	c9.761,9.266,22.944,14.963,37.465,14.963c30.068,0,54.442-24.374,54.442-54.442C294.657,361.428,270.282,337.054,240.215,337.054z"
	/>
<g>
	<path style="fill:#5EAC24;" d="M205.093,391.303c2.053,0,4.062,0.183,6.02,0.516c9.504-15.905,26.885-26.558,46.76-26.558
		c13.388,0,25.64,4.842,35.122,12.857c-5.963-23.598-27.33-41.064-52.78-41.064c-19.874,0-37.255,10.655-46.76,26.558
		c-1.958-0.333-3.968-0.516-6.02-0.516c-19.696,0-35.664,15.968-35.664,35.664c0,13.172,7.145,24.667,17.767,30.843
		c-0.064-0.872-0.108-1.749-0.108-2.637C169.429,407.27,185.397,391.303,205.093,391.303z"/>
	<path style="fill:#5EAC24;" d="M256.187,138.328c-29.109,0-54.641,15.259-69.077,38.204c-8.644-3.236-17.998-5.016-27.773-5.016
		c-15.623,0-30.177,4.54-42.451,12.347c-7.785-7.633-18.444-12.347-30.209-12.347c-23.835,0-43.157,19.322-43.157,43.157
		c0,21.703,16.022,39.657,36.881,42.698c3.368,40.657,37.409,72.61,78.935,72.61c27.263,0,51.304-13.773,65.56-34.735
		c9.636,4.006,20.203,6.228,31.289,6.228c45.052,0,81.573-36.521,81.573-81.573C337.76,174.849,301.239,138.328,256.187,138.328z"/>
</g>
<g>
	<path style="fill:#4E901E;" d="M124.103,237.445c-20.859-3.041-36.881-20.995-36.881-42.698c0-8.314,2.357-16.075,6.43-22.662
		c-2.27-0.369-4.598-0.57-6.973-0.57c-23.835,0-43.157,19.322-43.157,43.157c0,21.703,16.022,39.657,36.881,42.698
		c3.368,40.657,37.409,72.61,78.935,72.61c20.461,0,39.107-7.758,53.166-20.491c-3.105,0.37-6.261,0.567-9.466,0.567
		C161.512,310.055,127.47,278.103,124.103,237.445z"/>
	<path style="fill:#4E901E;" d="M307.623,156.6c-14.035-11.419-31.932-18.273-51.436-18.273c-29.109,0-54.641,15.259-69.077,38.204
		c-8.644-3.236-17.998-5.016-27.773-5.016c-15.623,0-30.177,4.54-42.451,12.347c-7.785-7.633-18.444-12.347-30.209-12.347
		c-23.835,0-43.157,19.322-43.157,43.157c0,2.715,0.251,5.372,0.731,7.948c11.176,5.328,23.672,8.32,36.856,8.32
		c3.155,0,6.289-0.17,9.394-0.509c23.661,24.706,56.499,38.969,91.345,38.969C246.977,269.401,300.762,219.934,307.623,156.6z"/>
</g>
<path style="fill:#6DC82A;" d="M223.72,56.434c-9.149-28.321-35.716-48.812-67.082-48.812c-38.934,0-70.495,31.562-70.495,70.495
	c0,4.01,0.353,7.936,0.996,11.763c-1.982-0.214-3.991-0.332-6.03-0.332c-30.626,0-55.452,24.827-55.452,55.452
	s24.827,55.452,55.452,55.452c7.418,0,14.489-1.467,20.956-4.11c17.238,25.673,46.536,42.57,79.784,42.57
	c53.038,0,96.033-42.996,96.033-96.033C277.882,104.852,255.779,71.99,223.72,56.434z"/>
<g>
	<path style="fill:#5EAC24;" d="M119.981,112.619c2.039,0,4.049,0.118,6.03,0.332c-0.643-3.827-0.996-7.753-0.996-11.763
		c0-38.934,31.562-70.495,70.495-70.495c5.009,0,9.894,0.528,14.608,1.521c-12.924-15.051-32.083-24.592-53.479-24.592
		c-38.934,0-70.495,31.562-70.495,70.495c0,4.01,0.353,7.936,0.996,11.763c-1.982-0.214-3.991-0.332-6.03-0.332
		c-30.626,0-55.452,24.827-55.452,55.452c0,28.459,21.443,51.898,49.053,55.073c-6.405-9.043-10.181-20.079-10.181-32.003
		C64.529,137.446,89.355,112.619,119.981,112.619z"/>
	<path style="fill:#5EAC24;" d="M229.21,195.766c-1.893,0-3.79-0.701-5.267-2.113c-3.042-2.91-3.15-7.734-0.241-10.777
		c10.362-10.838,16.069-25.042,16.069-39.997c0-15.615-6.023-30.191-16.96-41.04c-2.988-2.965-3.007-7.791-0.043-10.779
		c2.964-2.99,7.791-3.007,10.779-0.043c13.843,13.735,21.467,32.153,21.467,51.863c0,18.899-7.207,36.844-20.295,50.531
		C233.224,194.977,231.219,195.766,229.21,195.766z"/>
	<path style="fill:#5EAC24;" d="M181.849,216.047c-8.89,0-17.602-1.59-25.894-4.728c-3.938-1.489-5.922-5.888-4.432-9.826
		c1.489-3.937,5.891-5.921,9.825-4.432c6.562,2.482,13.46,3.741,20.5,3.741c6.841,0,13.537-1.186,19.904-3.523
		c3.949-1.45,8.33,0.576,9.782,4.528c1.451,3.952-0.575,8.331-4.528,9.783C198.952,214.547,190.488,216.047,181.849,216.047z"/>
</g>
<g>
	<circle style="fill:#FFE470;" cx="128.01" cy="153.783" r="14.511"/>
	<circle style="fill:#FFE470;" cx="190.644" cy="81.912" r="14.511"/>
	<circle style="fill:#FFE470;" cx="190.644" cy="154.495" r="14.511"/>
	<circle style="fill:#FFE470;" cx="277.881" cy="256.61" r="14.511"/>
	<circle style="fill:#FFE470;" cx="237.789" cy="406.003" r="14.511"/>
	<circle style="fill:#FFE470;" cx="388.523" cy="153.783" r="14.511"/>
	<circle style="fill:#FFE470;" cx="413.005" cy="218.032" r="14.511"/>
</g>
<path d="M118.58,309.626c-5.26-3.65-10.015-7.995-14.134-12.911c-2.702-3.226-7.511-3.652-10.737-0.948
	c-3.227,2.703-3.651,7.51-0.948,10.737c4.99,5.956,10.752,11.221,17.128,15.646c1.325,0.92,2.839,1.361,4.34,1.361
	c2.414,0,4.789-1.143,6.268-3.276C122.896,316.777,122.038,312.027,118.58,309.626z"/>
<path d="M493.965,160.05c0-27.492-19.021-51.115-45.198-57.414c-3.056-39.668-36.311-71.012-76.75-71.012
	c-40.11,0-73.154,30.836-76.67,70.046c-5.673,0.871-11.163,2.596-16.32,5.084c-2.542-6.839-5.811-13.418-9.782-19.628
	c-9.773-15.288-23.325-27.716-39.333-36.104C218.609,20.37,189.561,0,156.638,0C81.201,0,78.554,80.683,78.62,81.975
	c-33.629,1.313-60.584,29.081-60.584,63.026c0,19.379,8.792,36.737,22.589,48.317c-3.087,6.662-4.725,13.958-4.725,21.354
	c0,23.026,15.784,43.145,37.57,49.031c1.004,6.713,2.792,13.273,5.335,19.569c1.199,2.968,4.054,4.769,7.07,4.769
	c0.95,0,1.917-0.179,2.852-0.557c3.904-1.576,5.79-6.018,4.213-9.922c-2.685-6.646-4.347-13.653-4.94-20.824
	c-0.293-3.536-2.986-6.402-6.497-6.913c-17.307-2.522-30.358-17.636-30.358-35.155c0-4.443,0.845-8.831,2.443-12.93
	c8.322,4.053,17.66,6.332,27.523,6.332c6.174,0,12.233-0.886,18.083-2.641c19.568,25.844,50.041,41.101,82.657,41.101
	c54.142,0,98.715-41.728,103.265-94.711c27.196,11.496,45.024,38.024,45.024,68.076c0,40.777-33.174,73.951-73.951,73.951
	c-9.812,0-19.355-1.899-28.363-5.644c-3.338-1.388-7.194-0.239-9.229,2.752c-13.37,19.662-35.522,31.399-59.257,31.399
	c-6.775,0-13.475-0.943-19.913-2.804c-4.043-1.169-8.269,1.163-9.438,5.206c-1.169,4.044,1.163,8.27,5.206,9.439
	c7.813,2.258,15.937,3.404,24.145,3.404c26.763,0,51.865-12.302,68.289-33.188c5.095,1.725,10.316,2.959,15.626,3.732
	c2.027,6.918,3.931,14.255,5.693,21.912c-2.856-0.404-5.768-0.626-8.733-0.626c-20.053,0-39.003,9.887-50.575,26.101
	c-0.738-0.039-1.474-0.058-2.205-0.058c-23.867,0-43.286,19.418-43.286,43.286c0,23.868,19.418,43.286,43.286,43.286
	c4.76,0,9.388-0.757,13.82-2.254c11.018,8.911,24.673,13.767,38.96,13.767c8.191,0,16.01-1.61,23.176-4.506
	c0.424,11.387,0.651,23.117,0.651,35.001c0,15.41,12.538,27.947,27.948,27.947s27.948-12.537,27.948-27.947
	c0-22.965-0.726-44.927-2.166-65.844c16.987-2.733,39.392-9.734,59.088-27.044c3.162-2.779,3.473-7.595,0.694-10.757
	c-2.778-3.163-7.595-3.473-10.757-0.694c-16.567,14.56-35.515,20.716-50.221,23.242c-0.759-8.635-1.647-17.079-2.663-25.33
	c10.96-2.091,24.673-6.807,36.453-17.298c9.493-8.455,16.793-19.741,21.73-33.556c9.114-6.887,16.54-16.025,21.43-26.799
	c3.292,1.188,6.658,2.104,10.078,2.776l0,0c-2.762,21.249-8.777,39.559-17.936,54.475c-2.202,3.587-1.08,8.281,2.508,10.484
	c1.244,0.763,2.62,1.127,3.981,1.127c2.562,0,5.063-1.292,6.502-3.635c10.39-16.923,17.152-37.483,20.151-61.171
	c37.786-0.889,68.256-31.882,68.256-69.877c0-12.004-3.032-23.636-8.82-34.003C488.304,189.284,493.965,174.995,493.965,160.05z
	 M181.849,231.291c-29.516,0-56.976-14.653-73.456-39.197c-1.451-2.161-3.851-3.374-6.33-3.374c-0.964,0-1.942,0.184-2.88,0.568
	c-5.753,2.351-11.835,3.543-18.072,3.543c-26.373,0-47.829-21.457-47.829-47.829c0-26.373,21.456-47.83,47.829-47.83
	c1.692,0,3.445,0.097,5.21,0.288c2.369,0.258,4.728-0.612,6.366-2.349c1.636-1.736,2.366-4.139,1.971-6.492
	c-0.59-3.514-0.89-7.048-0.89-10.5c-0.001-34.669,28.204-62.874,62.871-62.874c27.375,0,51.419,17.494,59.829,43.532
	c0.638,1.977,2.056,3.607,3.925,4.514c30.76,14.927,49.867,45.424,49.867,79.589C270.26,191.629,230.6,231.291,181.849,231.291z
	 M284.467,304.497c5.203,19.079,9.413,39.833,12.616,62.179c-6.177-14.097-17.441-25.465-31.462-31.783
	c-0.006-0.034-0.009-0.067-0.016-0.101c-1.899-8.988-3.996-17.61-6.254-25.76C268.099,308.726,276.531,307.158,284.467,304.497z
	 M240.214,438.315c-12.035,0-23.476-4.57-32.217-12.869c-1.448-1.374-3.336-2.095-5.25-2.095c-1.111,0-2.229,0.243-3.275,0.741
	c-3.775,1.799-7.825,2.71-12.038,2.71c-15.463,0-28.042-12.579-28.042-28.042s12.579-28.042,28.042-28.042
	c1.556,0,3.151,0.137,4.741,0.408c3.098,0.528,6.208-0.903,7.821-3.604c8.55-14.306,23.584-22.846,40.217-22.846
	c25.817,0,46.82,21.003,46.82,46.82C287.033,417.312,266.031,438.315,240.214,438.315z M291.99,496.756
	c-7.005,0-12.703-5.698-12.703-12.702c0-14.295-1.011-42.994-1.137-43.489c11.855-9.185,20.297-22.557,23.1-37.883
	c2.289,25.425,3.444,52.579,3.444,81.371C304.693,491.058,298.994,496.756,291.99,496.756z M340.227,348.946
	c-8.983,8-19.614,11.787-28.345,13.554c-1.268-8.658-2.69-17.079-4.257-25.272c7.142,2.394,14.67,3.636,22.274,3.636
	c6.818,0,13.445-0.978,19.734-2.812C346.864,342.19,343.725,345.83,340.227,348.946z M417.148,288.829
	c-8.585,0-16.817-1.946-24.468-5.783c-1.992-1-4.324-1.076-6.377-0.21c-2.054,0.866-3.626,2.587-4.302,4.711
	c-7.249,22.773-28.187,38.073-52.103,38.073c-9.137,0-18.127-2.289-26.092-6.62l0.005-0.009c-1.618-7.076-3.359-13.955-5.218-20.637
	c27.843-15.11,46.789-44.611,46.789-78.454c0-38.348-24.074-71.941-60.135-84.335c-0.328-4.679-0.98-9.309-1.927-13.868
	c5.972-3.352,12.662-5.231,19.568-5.437c4.119-0.123,7.394-3.497,7.394-7.619c0-0.036,0-0.074-0.001-0.114
	c0.041-34.007,27.719-61.661,61.736-61.661c34.029,0,61.717,27.677,61.734,61.703c-0.005,0.132-0.009,0.264-0.01,0.397
	c-0.026,3.863,2.839,7.135,6.673,7.617c21.838,2.741,38.306,21.426,38.306,43.465c0,12.717-5.529,24.794-15.168,33.138
	c-2.934,2.54-3.492,6.877-1.296,10.076c6.258,9.12,9.566,19.801,9.566,30.891C471.823,264.301,447.296,288.829,417.148,288.829z"/>
</svg>